<?xml version="1.0" standalone="no"?>
<!DOCTYPE svg PUBLIC "-//W3C//DTD SVG 20010904//EN"
 "http://www.w3.org/TR/2001/REC-SVG-20010904/DTD/svg10.dtd">
<svg version="1.0" xmlns="http://www.w3.org/2000/svg"
 width="800.000000pt" height="800.000000pt" viewBox="0 0 800.000000 800.000000"
 preserveAspectRatio="xMidYMid meet">
<metadata>
Created by potrace 1.14, written by Peter Selinger 2001-2017
</metadata>
<g transform="translate(0.000000,800.000000) scale(0.100000,-0.100000)"
fill="#000000" stroke="none">
<path d="M4201 7921 c-9 -6 -9 -10 -2 -12 12 -4 16 -42 8 -74 -3 -11 -6 -24
-6 -28 -1 -5 -6 -5 -11 -2 -6 3 -13 -2 -17 -12 -3 -10 -13 -22 -20 -26 -7 -5
-11 -12 -8 -18 4 -5 1 -9 -5 -9 -6 0 -8 -5 -5 -11 4 -6 -1 -17 -11 -24 -11 -8
-15 -15 -10 -15 6 0 1 -7 -10 -16 -10 -8 -13 -13 -7 -9 9 4 11 1 7 -9 -3 -9
-11 -13 -17 -9 -5 3 -7 1 -4 -4 8 -12 -17 -66 -26 -57 -3 3 -3 -3 0 -15 3 -13
1 -21 -6 -21 -7 0 -10 -4 -6 -9 3 -5 0 -13 -6 -16 -5 -4 -8 -13 -5 -21 3 -8 0
-13 -7 -11 -7 1 -12 -5 -12 -13 0 -8 -8 -24 -17 -34 -10 -11 -18 -25 -18 -32
0 -7 -10 -23 -22 -35 -13 -12 -17 -18 -9 -14 9 5 12 4 8 -2 -4 -6 -20 -16 -37
-23 -16 -7 -30 -19 -30 -27 0 -9 -14 -27 -30 -42 -17 -15 -32 -38 -34 -51 -2
-14 -6 -33 -10 -42 -3 -10 -8 -25 -11 -34 -3 -8 -10 -12 -16 -8 -8 5 -10 -1
-7 -19 3 -15 1 -24 -3 -21 -5 3 -10 0 -10 -5 -1 -6 -2 -17 -3 -23 -1 -7 -8
-12 -16 -10 -8 2 -12 0 -8 -4 4 -4 2 -14 -5 -22 -10 -13 -9 -15 3 -8 9 4 8 2
-2 -7 -10 -8 -15 -17 -11 -20 3 -4 1 -7 -6 -7 -7 0 -11 -6 -8 -12 2 -7 -5 -21
-16 -30 -11 -10 -17 -18 -13 -18 4 0 -2 -9 -13 -21 -11 -12 -24 -18 -30 -14
-6 3 -11 0 -11 -7 0 -9 -3 -9 -10 2 -6 9 -10 10 -10 3 0 -8 -9 -9 -30 -3 -18
5 -30 5 -30 -1 0 -5 -15 -3 -34 5 -23 9 -38 11 -47 4 -11 -7 -9 -8 6 -4 18 5
18 5 4 -7 -14 -11 -14 -14 -2 -26 11 -10 12 -16 4 -24 -15 -15 -14 -30 2 -21
10 6 10 4 0 -7 -7 -7 -13 -24 -13 -37 0 -13 -4 -21 -8 -18 -8 4 -11 -18 -13
-86 0 -10 -5 -21 -11 -24 -6 -4 -5 -10 3 -15 11 -7 11 -9 1 -9 -7 0 -10 -4 -7
-10 3 -5 0 -10 -7 -10 -9 0 -9 -3 2 -10 8 -5 11 -10 5 -10 -12 0 -11 -102 0
-121 5 -8 4 -10 -4 -5 -8 5 -10 -1 -6 -22 6 -35 -19 -75 -33 -54 -7 11 -11 10
-17 -5 -12 -30 -13 -93 -1 -86 6 4 5 -1 -3 -10 -7 -9 -10 -17 -5 -17 5 0 3 -4
-5 -9 -12 -8 -12 -12 -2 -25 11 -13 11 -17 -1 -21 -9 -4 -13 -15 -11 -29 4
-20 1 -23 -24 -22 -15 0 -31 5 -35 10 -4 6 -12 5 -20 -2 -11 -9 -17 -9 -26 0
-9 9 -12 9 -12 -3 0 -10 -3 -10 -8 -2 -4 6 -32 13 -63 16 -31 2 -62 8 -70 13
-8 4 -29 7 -47 5 -19 -1 -32 1 -29 6 4 6 0 10 -8 10 -8 0 -15 -5 -15 -11 0 -6
-4 -4 -9 4 -6 8 -7 19 -4 25 4 5 2 6 -3 2 -15 -14 -11 -67 6 -67 10 0 11 -3 4
-8 -6 -4 -12 -32 -12 -62 -1 -60 -4 -79 -15 -97 -4 -6 -1 -14 5 -16 8 -3 6 -6
-5 -6 -11 -1 -15 -5 -11 -13 5 -8 2 -9 -9 -5 -11 4 -17 1 -17 -9 0 -8 -4 -12
-10 -9 -5 3 -10 -1 -10 -10 0 -10 5 -14 13 -9 9 5 9 4 0 -6 -6 -7 -9 -19 -6
-28 5 -11 3 -13 -8 -7 -11 7 -12 6 -2 -6 9 -11 11 -54 3 -54 -1 0 -3 -10 -4
-22 -2 -13 1 -23 5 -23 4 0 10 -7 13 -16 3 -8 2 -12 -4 -9 -6 3 -10 -3 -10
-15 0 -14 4 -19 13 -14 8 5 8 2 -2 -9 -8 -11 -9 -17 -3 -17 8 0 8 -8 3 -22 -5
-13 -15 -22 -21 -20 -8 2 -10 -3 -6 -15 6 -14 5 -16 -5 -5 -15 14 -33 16 -24
2 4 -7 -3 -7 -19 0 -25 9 -26 8 -26 -26 0 -21 4 -33 10 -29 11 7 10 -16 -1
-25 -10 -9 -19 -71 -9 -65 5 3 5 -7 0 -25 -5 -18 -5 -32 1 -36 6 -4 6 -10 0
-18 -6 -7 -8 -16 -4 -19 3 -4 2 -7 -4 -7 -6 0 -14 -15 -18 -32 -4 -18 -9 -28
-11 -22 -3 7 -14 10 -24 7 -12 -3 -20 0 -20 7 0 7 -8 9 -20 5 -12 -4 -20 -2
-20 6 0 8 -3 9 -13 0 -8 -6 -18 -7 -22 -3 -5 4 -5 1 -1 -5 4 -7 2 -13 -4 -13
-6 0 -8 -5 -4 -12 5 -8 0 -9 -14 -6 -13 4 -22 1 -22 -5 0 -6 -7 -2 -15 9 -8
10 -15 15 -15 9 0 -13 -50 -16 -50 -3 0 5 -6 6 -12 1 -19 -11 -37 -12 -43 -3
-3 5 -13 6 -22 3 -9 -4 -14 -2 -10 3 3 5 -11 8 -34 6 -27 -3 -39 0 -39 9 0 7
-3 9 -7 6 -3 -4 -13 -1 -21 6 -13 10 -14 9 -7 -3 4 -8 -2 -5 -14 8 -22 23 -37
30 -26 12 3 -5 1 -10 -5 -10 -7 0 -8 -6 0 -19 7 -14 7 -22 0 -26 -8 -5 -7 -11
1 -21 6 -8 8 -14 3 -14 -8 0 -8 -31 -2 -95 1 -17 -6 -39 -18 -52 -6 -6 -9 -24
-6 -39 3 -15 1 -24 -4 -21 -5 3 -9 -12 -8 -34 0 -22 -4 -39 -10 -39 -6 0 -4
-5 4 -10 9 -6 10 -10 3 -10 -8 0 -9 -9 -3 -30 5 -16 5 -28 2 -27 -10 3 -58
-46 -54 -56 1 -5 -2 -6 -7 -3 -5 3 -15 -2 -22 -11 -8 -10 -9 -14 -2 -10 6 4
14 3 18 -3 3 -5 -1 -10 -9 -10 -9 0 -13 -6 -10 -14 3 -8 0 -17 -5 -21 -6 -3
-8 -12 -4 -18 4 -7 8 -27 9 -46 1 -18 6 -36 11 -40 5 -3 8 -13 8 -21 -2 -24
15 -51 26 -44 8 4 8 1 1 -13 -7 -12 -7 -25 -1 -36 6 -9 6 -17 2 -17 -4 0 -1
-5 7 -11 11 -8 12 -12 2 -16 -6 -2 -10 -9 -6 -14 3 -5 -1 -9 -8 -9 -7 0 -19
-9 -26 -20 -7 -12 -17 -18 -22 -15 -6 3 -10 1 -10 -5 0 -7 -6 -10 -14 -7 -18
7 -13 -33 5 -44 8 -5 8 -8 0 -13 -8 -5 -7 -12 3 -22 9 -8 12 -22 9 -31 -5 -12
-3 -14 8 -8 11 6 12 5 2 -6 -16 -16 -17 -33 -1 -23 7 5 8 3 3 -6 -4 -7 -2 -16
6 -21 10 -6 10 -9 2 -9 -7 0 -10 -7 -7 -15 4 -8 11 -12 16 -9 6 4 5 -3 -1 -15
-7 -11 -8 -21 -3 -21 5 0 10 -10 10 -23 0 -15 -7 -23 -19 -24 -11 -1 -19 4
-19 10 0 8 -3 8 -8 2 -9 -13 -72 -14 -72 -1 0 5 -6 2 -13 -9 -11 -14 -16 -15
-22 -5 -6 9 -4 11 5 5 9 -5 11 -4 6 4 -5 7 -12 9 -19 3 -7 -4 -23 -7 -37 -6
-30 2 -40 -11 -40 -52 0 -30 -3 -32 -40 -36 -23 -2 -40 1 -41 7 0 5 -4 1 -9
-10 -7 -17 -9 -17 -9 -2 -1 9 -6 17 -12 17 -6 0 -8 -7 -5 -16 5 -14 4 -15 -9
-4 -8 7 -26 10 -40 8 -13 -3 -26 0 -29 6 -3 7 -5 7 -5 -1 -1 -8 -10 -9 -28 -4
-16 4 -38 6 -51 5 -12 -1 -22 1 -22 5 0 3 -19 6 -42 6 -35 0 -42 -4 -40 -18 2
-9 -2 -17 -9 -17 -8 0 -8 -4 1 -15 7 -8 9 -15 5 -15 -4 0 -2 -6 4 -13 6 -8 8
-17 4 -20 -3 -4 -1 -7 6 -7 7 0 9 -5 6 -10 -4 -6 -1 -18 7 -27 11 -14 11 -16
-2 -8 -9 5 -7 -1 5 -15 12 -14 14 -20 5 -15 -13 8 -13 7 0 -9 8 -11 13 -29 12
-41 -2 -13 2 -26 7 -30 6 -3 11 -19 11 -36 0 -16 4 -29 10 -29 5 0 7 -7 3 -15
-3 -9 3 -23 13 -31 11 -9 14 -13 8 -10 -7 3 -14 -1 -18 -9 -3 -8 -2 -14 2 -14
22 4 24 -3 4 -17 -12 -8 -22 -21 -22 -29 0 -8 -5 -17 -12 -21 -7 -5 -8 -3 -3
7 8 12 6 12 -8 0 -18 -14 -24 -47 -7 -36 5 3 10 1 10 -5 0 -6 5 -8 12 -4 7 5
8 3 3 -7 -12 -19 -14 -49 -3 -55 4 -3 6 -10 3 -15 -4 -5 -1 -9 5 -9 6 0 9 -4
6 -9 -4 -5 -2 -11 3 -13 5 -1 11 -12 13 -23 1 -11 14 -31 28 -44 14 -13 18
-20 10 -16 -8 3 -6 -1 4 -9 11 -9 23 -16 28 -16 4 0 7 -3 6 -7 -1 -5 6 -21 16
-38 9 -16 15 -22 12 -12 -3 11 -2 15 4 12 6 -3 10 -15 10 -26 0 -10 5 -19 10
-19 6 0 10 -6 10 -14 0 -8 6 -17 13 -19 9 -4 8 -8 -3 -16 -8 -6 -12 -11 -8
-11 5 0 -2 -10 -14 -22 -13 -13 -27 -22 -32 -20 -5 2 -5 -5 -2 -15 4 -9 4 -14
0 -10 -10 10 -35 -13 -27 -26 3 -6 1 -7 -5 -3 -7 4 -12 2 -12 -4 0 -6 -4 -9
-9 -5 -6 3 -15 -4 -21 -16 -9 -15 -9 -19 -1 -15 6 4 14 0 17 -8 3 -9 12 -16
20 -16 16 0 36 -34 26 -45 -4 -5 -2 -5 4 -2 7 4 17 -6 24 -24 10 -22 15 -27
21 -17 6 8 9 2 9 -19 0 -23 5 -33 15 -33 8 0 20 -9 27 -20 7 -11 18 -20 25
-20 7 0 13 -5 13 -10 0 -15 87 -100 94 -93 3 4 7 -2 8 -13 0 -10 2 -26 3 -34
1 -8 -3 -21 -8 -28 -8 -10 -13 -10 -25 0 -13 10 -14 10 -8 1 4 -8 2 -13 -5
-13 -7 0 -9 -3 -6 -6 4 -4 -3 -15 -15 -25 -11 -11 -17 -19 -12 -19 5 -1 -2 -8
-16 -16 -14 -8 -17 -13 -7 -10 9 3 17 4 17 2 0 -9 -76 -51 -87 -48 -7 2 -13
-4 -13 -13 0 -10 -5 -13 -12 -9 -8 4 -10 3 -5 -2 5 -5 13 -10 18 -10 5 -1 14
-2 20 -3 5 0 8 -5 5 -9 -2 -4 4 -14 16 -21 16 -10 19 -10 13 1 -3 7 0 5 8 -4
8 -10 17 -18 21 -18 4 0 14 -7 22 -15 12 -11 12 -15 2 -15 -7 0 -1 -8 12 -17
36 -25 50 -40 43 -47 -4 -3 3 -6 14 -6 12 0 24 -7 27 -16 4 -10 2 -13 -6 -8
-7 5 -9 2 -5 -8 3 -9 0 -21 -6 -28 -9 -10 -9 -14 1 -17 6 -3 12 -11 12 -19 0
-9 4 -13 9 -9 5 3 13 0 16 -6 4 -5 13 -8 21 -5 8 3 14 1 14 -5 0 -6 3 -8 8 -6
8 6 26 -13 29 -31 2 -7 -3 -12 -10 -12 -8 0 -7 -4 3 -10 13 -8 13 -10 -2 -10
-11 0 -15 -6 -11 -20 3 -11 10 -20 15 -20 5 0 6 -5 3 -10 -4 -6 -3 -10 2 -9
13 3 63 -20 63 -29 0 -4 8 -8 18 -9 9 -1 31 -4 47 -8 17 -4 36 -8 43 -8 6 0
12 -3 12 -6 0 -4 11 -8 26 -9 17 -1 23 2 18 10 -4 6 3 4 15 -5 13 -8 30 -13
37 -10 8 3 14 0 14 -7 0 -6 5 -8 12 -4 7 4 8 3 4 -5 -4 -6 -12 -9 -17 -6 -5 4
-9 1 -9 -4 0 -6 5 -11 10 -11 6 0 10 -6 10 -14 0 -9 7 -13 20 -11 11 2 20 0
20 -6 0 -5 9 -9 20 -9 11 0 20 -3 20 -8 0 -12 59 -34 76 -28 8 3 17 -1 21 -10
3 -9 13 -14 24 -11 10 3 20 -1 23 -9 3 -8 15 -14 26 -14 11 0 21 -4 21 -10 1
-5 2 -14 3 -20 0 -5 5 -10 10 -9 5 0 12 -5 16 -12 5 -7 17 -13 27 -14 10 0 24
-4 31 -9 7 -4 20 -2 29 6 9 7 14 8 10 2 -4 -7 0 -15 9 -18 12 -5 14 -10 5 -20
-6 -7 -8 -16 -4 -19 3 -4 2 -7 -4 -7 -5 0 -10 -6 -10 -12 0 -7 -2 -19 -4 -27
-2 -8 4 -17 15 -19 13 -3 16 0 11 9 -6 8 -4 10 4 4 16 -9 62 15 54 28 -4 6 -1
7 6 3 7 -5 19 0 27 10 9 11 12 13 9 6 -6 -11 -3 -11 14 0 12 7 21 17 21 22 0
4 6 3 14 -3 10 -8 16 -9 21 -1 3 6 11 8 16 5 5 -4 9 -2 9 4 0 5 8 8 18 6 9 -1
23 2 30 8 8 6 12 6 12 -1 0 -6 7 -9 15 -6 8 4 13 9 10 13 -2 4 6 7 18 6 12 -1
28 2 35 8 8 6 12 6 12 -2 0 -13 22 -10 32 4 5 6 8 5 8 -2 0 -7 5 -13 11 -13 5
0 8 4 5 8 -6 10 45 9 61 -1 6 -4 14 -3 18 3 4 6 12 7 22 1 19 -10 55 -3 47 10
-3 5 6 5 20 -1 19 -7 26 -6 26 3 0 8 4 7 10 -3 9 -13 10 -13 10 0 0 13 1 13
10 0 7 -11 10 -11 10 -2 0 7 4 10 10 7 5 -3 18 -2 28 4 10 6 24 6 32 1 9 -5
19 -5 27 2 10 8 13 7 13 -3 0 -11 2 -11 10 1 5 8 10 10 10 4 0 -7 16 -14 35
-16 19 -2 35 0 35 6 0 5 7 1 15 -10 10 -13 14 -14 15 -5 0 11 3 11 17 0 14
-12 16 -12 8 0 -5 9 5 6 22 -7 17 -12 33 -19 36 -15 4 3 14 0 24 -8 15 -12 16
-12 8 1 -6 10 -2 10 12 -3 11 -10 34 -19 52 -20 17 -1 31 -5 31 -9 0 -5 9 -8
20 -8 11 0 20 -5 20 -11 0 -5 4 -8 9 -5 5 3 12 -1 15 -10 3 -8 10 -13 14 -10
12 7 12 10 15 -294 2 -174 -1 -282 -7 -295 -14 -27 -16 -404 -3 -430 6 -11 12
-60 13 -110 6 -201 13 -255 38 -302 9 -18 14 -33 11 -33 -3 0 2 -17 10 -37 20
-47 20 -44 3 -54 -8 -5 9 -9 44 -9 55 0 58 1 54 23 -3 12 -5 32 -5 45 -1 13
-5 21 -10 18 -5 -3 -12 1 -15 10 -4 10 -2 13 7 8 6 -4 4 2 -6 13 -13 14 -15
23 -7 28 8 5 8 11 1 19 -6 7 -8 16 -4 20 9 8 12 156 3 156 -3 0 -6 23 -5 50 1
31 -4 55 -12 62 -10 8 -10 14 -2 24 9 11 8 18 -2 31 -10 11 -10 14 -1 9 15 -9
15 -1 1 26 -6 11 -7 18 -1 14 5 -3 10 5 10 19 0 14 -5 22 -11 18 -6 -4 -7 -1
-1 8 12 21 13 79 0 79 -6 0 -5 4 3 9 12 7 12 13 3 24 -7 7 -9 17 -5 21 10 9
15 48 6 43 -5 -3 -9 21 -9 54 -1 41 2 57 10 52 6 -4 6 -1 -2 9 -7 8 -9 24 -5
33 4 13 3 16 -5 11 -8 -5 -10 -2 -6 8 3 9 11 13 18 9 6 -3 3 3 -7 14 -9 11
-14 23 -11 26 11 11 10 91 -1 106 -8 11 -7 13 4 7 10 -7 12 -3 6 14 -6 17 -4
21 6 15 8 -5 6 1 -3 11 -16 18 -16 23 -4 39 12 17 12 23 -5 47 -13 17 -16 29
-9 33 8 5 8 11 1 19 -6 7 -8 16 -4 20 10 9 13 37 4 31 -5 -2 -9 21 -10 52 -1
31 -6 62 -12 69 -7 9 -6 20 4 36 8 13 13 38 12 55 -2 18 1 31 5 28 3 -2 7 2 7
10 0 8 -4 12 -9 9 -13 -9 -9 4 8 20 11 11 12 16 3 16 -19 0 23 29 43 30 9 0
19 6 21 13 4 9 6 8 6 -2 1 -10 4 -11 15 -2 11 9 16 9 21 0 6 -8 10 -7 16 2 7
12 9 12 9 0 0 -11 3 -11 17 0 15 12 16 12 8 -1 -8 -13 -7 -13 8 -1 13 10 17
10 17 1 0 -10 3 -10 14 -1 11 9 16 9 21 0 6 -8 10 -7 16 2 5 8 9 9 9 3 0 -14
30 -14 30 0 0 8 2 8 8 0 11 -16 47 -23 66 -12 9 5 16 6 15 1 -3 -20 2 -24 16
-13 11 9 15 9 15 1 0 -7 4 -10 9 -6 5 3 13 0 16 -6 4 -5 13 -8 21 -5 8 3 14 2
14 -3 0 -4 7 -8 15 -9 8 -1 22 -3 30 -4 8 -1 15 -5 15 -10 0 -4 9 -8 20 -8 10
0 23 -8 29 -17 5 -10 13 -15 17 -11 4 5 13 3 21 -3 10 -9 13 -8 13 2 0 8 6 6
16 -7 8 -10 13 -12 9 -4 -4 9 -1 8 8 -3 11 -14 16 -15 20 -5 4 10 6 10 6 1 1
-7 10 -13 20 -13 11 0 23 -4 26 -10 3 -5 15 -10 26 -10 10 0 19 -4 19 -10 0
-5 5 -10 11 -10 5 0 7 5 3 12 -5 7 -3 8 7 2 19 -12 33 -12 41 1 5 6 8 6 8 -2
0 -7 6 -13 14 -13 8 0 17 -6 19 -12 4 -10 6 -9 6 1 1 10 4 11 15 2 11 -9 18
-8 30 4 12 12 16 13 16 3 0 -9 3 -9 8 -2 4 6 15 10 25 8 9 -1 17 2 17 8 0 7 5
6 14 -1 10 -9 16 -9 21 -1 4 6 12 9 18 7 7 -2 18 3 25 12 9 10 11 11 6 2 -6
-11 -3 -13 12 -7 10 4 27 9 37 11 19 4 49 30 42 37 -8 8 29 3 43 -6 8 -4 12
-1 13 11 0 16 1 16 9 -2 6 -13 9 -15 9 -5 1 12 3 13 10 1 6 -9 11 -10 15 -2 5
7 14 7 32 -1 16 -7 28 -8 32 -2 10 13 42 14 42 2 0 -6 6 -5 15 2 8 7 15 9 15
5 0 -4 6 -2 14 4 11 9 15 9 19 -1 4 -8 6 -9 6 -1 1 6 10 9 20 6 19 -5 49 31
43 51 -2 5 4 4 12 -4 9 -7 16 -8 16 -3 0 8 47 15 121 16 27 0 36 4 34 16 -3
23 24 48 35 32 5 -9 9 -7 13 8 3 14 10 19 21 15 9 -4 25 5 41 22 14 15 25 24
25 21 0 -3 12 5 26 18 15 14 30 22 35 19 5 -3 9 -1 9 3 0 5 15 15 33 22 29 13
30 14 10 18 -13 2 -23 9 -23 14 0 6 -4 7 -10 4 -5 -3 -10 -2 -10 3 0 5 -13 23
-29 40 -16 16 -27 32 -25 35 3 3 -3 4 -13 4 -13 -2 -18 5 -19 23 -1 21 3 25
25 24 14 0 29 4 33 10 5 7 8 7 8 -2 0 -10 4 -10 16 2 18 19 38 21 28 4 -4 -7
2 -5 13 4 11 10 26 18 34 18 8 0 24 7 36 15 15 10 24 12 28 5 5 -8 15 -6 32 5
14 10 23 13 19 7 -4 -6 2 -8 14 -5 11 3 17 10 13 17 -4 6 1 5 10 -3 10 -8 17
-9 17 -3 0 6 9 9 19 7 13 -2 21 3 24 17 4 15 2 18 -10 14 -12 -5 -13 -3 -6 6
11 14 -20 52 -32 40 -3 -4 -3 2 1 12 6 15 4 17 -6 11 -8 -5 -11 -4 -7 3 9 14
-3 43 -14 36 -5 -3 -9 2 -9 10 0 9 7 16 15 16 8 0 14 5 12 12 -1 7 4 13 11 14
6 1 17 2 23 3 5 0 8 5 5 9 -4 7 15 11 59 15 15 1 18 47 4 47 -8 0 -7 5 1 15
10 12 10 15 -1 15 -8 1 1 7 19 15 18 8 31 19 28 24 -3 5 2 15 11 22 14 12 16
12 8 0 -6 -10 -4 -12 4 -7 7 5 10 15 7 23 -3 8 -1 11 4 8 6 -3 13 1 16 9 3 9
9 14 13 12 3 -2 19 9 34 25 16 16 25 29 21 29 -4 0 1 7 12 15 10 8 16 15 12
15 -5 0 0 8 10 18 9 11 22 16 27 13 6 -2 4 2 -3 11 -7 9 -22 13 -36 11 -20 -4
-35 6 -75 46 -28 28 -55 51 -61 51 -5 0 -10 5 -10 11 0 5 -4 8 -9 5 -5 -4 -7
3 -4 14 3 11 9 17 14 14 5 -3 9 2 9 10 0 8 9 20 21 26 11 7 18 14 15 17 -5 5
3 17 37 54 10 11 14 25 10 32 -4 7 0 7 10 -2 15 -12 17 -11 17 8 0 12 5 19 10
16 6 -3 10 -2 10 4 0 6 12 22 28 37 15 15 21 23 15 20 -9 -5 -11 -2 -7 8 3 9
9 15 12 13 4 -1 22 13 41 30 19 18 38 30 42 27 4 -2 12 4 18 13 5 10 11 17 13
15 7 -7 37 11 32 19 -3 5 -10 7 -15 4 -5 -4 -9 -1 -9 5 0 6 -5 8 -12 4 -6 -4
-8 -3 -5 3 4 6 -2 20 -12 32 -12 13 -17 30 -13 43 3 14 1 19 -6 14 -7 -4 -12
-1 -12 8 0 8 -6 17 -12 20 -9 3 -7 9 6 20 11 9 16 16 11 16 -4 0 3 10 17 23
14 13 24 31 22 41 -1 10 0 15 3 13 3 -3 11 0 18 6 10 9 10 15 1 26 -9 12 -8
13 3 6 11 -6 13 -4 8 8 -3 10 -3 17 2 17 4 0 6 11 3 25 -2 14 -9 25 -14 25 -6
0 -8 7 -4 15 3 8 1 15 -5 15 -6 0 -7 5 -4 10 3 6 0 10 -7 10 -9 0 -9 3 2 10
13 9 13 10 0 10 -13 0 -13 1 0 10 8 5 10 10 3 10 -12 0 -12 17 0 38 5 7 4 12
-2 12 -13 0 -10 22 4 33 6 4 4 11 -5 17 -13 9 -13 10 0 10 13 0 13 1 0 11 -11
8 -12 12 -2 16 6 2 9 9 6 14 -3 5 -8 26 -10 47 -3 20 -14 46 -25 58 -15 16
-17 24 -9 29 9 6 9 10 -1 16 -11 7 -11 9 1 9 15 0 46 39 42 53 -1 4 3 7 9 7 6
0 9 6 6 14 -3 8 2 16 14 19 13 3 17 11 13 21 -4 10 -1 16 7 16 10 0 10 3 1 12
-9 9 -7 15 6 25 9 8 11 11 3 7 -10 -5 -12 -3 -7 5 6 9 11 9 23 0 12 -10 16
-10 24 2 7 11 9 11 9 0 0 -11 3 -11 15 -1 12 10 15 10 15 0 0 -9 4 -9 17 1 11
10 14 10 9 2 -9 -17 6 -17 23 0 11 10 12 9 6 -2 -9 -16 7 -9 39 18 16 13 18
13 11 1 -8 -13 -7 -13 8 -1 16 13 16 14 0 26 -10 8 -20 10 -23 7 -7 -9 -32 -8
-47 1 -9 6 -11 3 -7 -10 3 -10 -2 -7 -10 7 -8 14 -15 19 -16 13 0 -8 -20 -1
-51 18 -27 17 -53 29 -56 25 -3 -3 -12 2 -20 12 -10 11 -12 12 -8 2 4 -8 -1
-6 -9 4 -10 13 -16 15 -16 7 0 -11 -3 -11 -15 -1 -8 6 -19 9 -25 5 -5 -3 -10
-2 -10 2 0 5 -9 9 -20 10 -13 1 -18 -2 -13 -10 5 -9 3 -9 -8 -1 -8 6 -22 10
-32 8 -12 -1 -17 2 -14 11 3 7 0 18 -6 24 -8 8 -8 11 1 11 6 0 9 7 6 15 -4 8
-10 12 -15 9 -5 -3 -9 0 -9 7 0 8 -5 7 -17 -2 -9 -8 -14 -9 -11 -4 8 13 -76
14 -88 2 -12 -12 -26 -8 -18 6 6 9 4 9 -7 1 -14 -11 -45 -11 -56 0 -3 3 -14 1
-23 -4 -16 -9 -18 -5 -18 33 0 23 -2 57 -4 75 -2 17 -1 32 2 32 4 0 6 18 6 39
-1 22 2 37 5 35 8 -5 15 52 11 85 -3 19 -6 21 -13 10 -7 -11 -9 -11 -9 -1 0 7
-4 10 -10 7 -5 -3 -10 -1 -10 5 0 6 -5 8 -10 5 -6 -4 -9 -1 -8 7 2 7 -5 12
-14 12 -10 -1 -16 3 -15 9 1 6 -7 13 -18 15 -32 7 -46 22 -36 41 4 9 7 40 5
70 -2 30 1 61 7 68 6 6 8 17 4 23 -3 5 -1 10 5 10 6 0 9 4 5 9 -3 5 0 13 6 16
5 4 8 13 5 21 -3 8 -1 14 5 14 6 0 8 4 4 9 -3 5 -1 12 5 16 6 4 3 16 -8 33 -9
14 -12 23 -6 19 7 -4 15 0 18 9 9 22 8 26 -6 18 -7 -5 -8 -3 -2 7 5 8 9 19 9
24 0 13 -18 34 -26 29 -7 -4 -44 36 -46 50 -1 5 -9 13 -18 18 -11 7 -13 13 -6
22 6 7 6 17 1 26 -13 20 -12 33 0 25 7 -4 7 2 1 18 -6 14 -7 28 -4 31 4 3 1 6
-6 6 -9 0 -9 5 -1 20 8 15 8 20 -1 20 -9 0 -9 3 0 14 8 10 9 16 1 21 -6 3 -7
11 -4 17 4 6 0 14 -7 19 -12 7 -12 9 0 9 11 0 11 3 1 15 -7 9 -8 15 -2 15 5 0
8 9 5 19 -3 10 1 29 7 41 10 18 10 21 -2 14 -11 -6 -11 -5 1 9 11 14 11 17 0
17 -11 0 -11 2 -1 9 10 6 9 11 -4 22 -15 12 -17 12 -9 0 6 -11 4 -13 -9 -8
-11 4 -27 -4 -48 -26 -17 -17 -28 -26 -24 -19 4 6 2 12 -3 12 -6 0 -11 -4 -11
-9 0 -13 -39 -21 -46 -9 -4 6 -10 5 -15 -3 -7 -12 -9 -12 -9 0 0 11 -4 11 -18
-2 -14 -13 -21 -14 -30 -5 -9 9 -12 9 -12 -1 0 -7 -5 -9 -12 -5 -7 5 -35 7
-62 6 -28 -1 -57 4 -65 11 -10 8 -13 8 -8 1 4 -7 0 -14 -8 -18 -8 -3 -15 -1
-15 5 0 6 -4 7 -10 4 -5 -3 -10 1 -10 9 0 19 -1 19 -34 7 -17 -7 -26 -7 -30 2
-3 9 -5 9 -5 0 -1 -10 -7 -10 -26 -1 -13 6 -22 15 -19 20 3 4 -2 11 -10 14 -9
3 -13 10 -10 15 3 5 0 9 -6 9 -6 0 -8 5 -5 10 3 6 1 10 -6 10 -9 0 -9 3 0 14
10 11 8 17 -6 25 -14 8 -15 11 -3 11 12 1 12 3 -2 14 -10 7 -14 17 -10 21 4 5
2 5 -5 1 -6 -3 -14 -2 -18 3 -3 5 -15 8 -26 6 -17 -3 -19 -2 -9 10 7 8 10 22
6 30 -3 9 -2 13 4 10 12 -8 12 -8 1 33 -7 22 -6 32 1 32 6 0 8 3 5 7 -4 3 -2
12 4 19 8 9 4 16 -13 26 -24 14 -30 15 -66 17 -13 1 -20 5 -17 11 4 6 2 16 -3
23 -5 7 -12 24 -16 40 -3 15 -10 27 -15 27 -5 0 -7 14 -5 31 2 18 0 28 -6 24
-6 -3 -10 1 -10 9 0 9 -4 16 -10 16 -5 0 -10 7 -10 15 0 9 -8 19 -17 22 -22 8
-37 24 -41 43 -2 8 -8 18 -14 21 -6 4 -7 12 -4 18 4 6 1 11 -6 11 -10 0 -10 2
1 9 10 6 10 10 1 16 -6 4 -9 13 -7 19 3 7 1 19 -4 27 -6 10 -9 10 -9 1 0 -6
-6 -11 -12 -10 -7 2 -12 -4 -10 -12 3 -11 1 -12 -8 -3 -8 7 -22 8 -41 3 -16
-5 -29 -6 -29 -2 0 4 -5 0 -10 -8 -5 -8 -10 -10 -10 -4 0 6 -7 11 -15 11 -8 0
-12 -4 -9 -8 2 -4 -5 -7 -16 -6 -11 1 -20 5 -20 10 0 5 -7 4 -15 -3 -8 -6 -19
-9 -25 -5 -5 3 -10 2 -10 -3 0 -5 -11 -7 -25 -4 -14 2 -32 -1 -40 -8 -9 -7
-18 -10 -22 -6 -3 3 -13 -3 -21 -15 -16 -24 -33 -14 -38 23 -6 40 -9 53 -18
67 -6 10 -5 12 2 7 7 -4 12 -2 12 3 0 6 -5 11 -11 11 -8 0 -8 5 1 15 9 11 10
15 1 15 -8 0 -10 8 -6 21 5 16 4 19 -5 14 -9 -6 -11 -4 -5 4 13 22 12 71 -3
83 -10 9 -16 8 -23 -3 -7 -11 -9 -11 -9 0 0 10 -3 11 -14 2 -18 -15 -29 1 -28
40 0 16 -3 29 -7 29 -4 0 -8 6 -8 13 -2 35 -10 74 -17 86 -4 7 -5 15 -2 18 3
3 1 12 -5 20 -6 7 -8 13 -4 13 4 0 1 8 -6 17 -12 15 -12 16 1 8 13 -8 13 -7 1
8 -8 10 -11 20 -8 23 3 3 1 19 -3 35 -5 17 -5 31 1 35 6 3 5 12 -3 22 -8 9 -8
13 -2 9 7 -4 15 0 18 9 3 8 2 12 -4 9 -6 -3 -10 -1 -10 5 0 6 -8 4 -17 -6 -10
-9 -19 -12 -21 -6 -1 5 -12 8 -22 5 -12 -3 -20 0 -20 6 0 7 -4 9 -10 6 -5 -3
-10 -2 -10 4 0 10 -32 7 -52 -5 -6 -4 -8 -3 -5 3 4 6 0 16 -8 23 -7 6 -12 17
-9 25 3 7 0 16 -5 20 -6 3 -9 11 -6 16 4 5 0 9 -7 9 -9 0 -9 3 2 10 12 7 12
10 1 10 -7 0 -11 6 -8 14 3 8 1 17 -6 20 -9 5 -9 7 1 12 10 5 10 9 1 20 -6 8
-7 14 -2 14 5 0 9 11 9 25 0 14 -3 25 -7 25 -4 0 -5 10 -1 22 4 15 2 19 -7 13
-10 -6 -11 -3 -1 15 8 15 8 20 1 16 -7 -4 -11 1 -11 13 0 12 -4 21 -8 21 -5 0
-9 6 -9 13 0 6 -4 21 -9 31 -5 14 -4 17 4 12 8 -5 10 -2 6 8 -3 9 -11 16 -18
16 -6 0 -4 5 4 10 12 8 12 10 1 10 -8 0 -11 7 -8 20 3 11 1 23 -4 26 -5 3 -7
10 -4 15 4 5 2 9 -3 9 -5 0 -8 11 -7 25 2 14 -1 25 -7 25 -6 0 -7 7 -4 15 3 9
-1 18 -10 22 -8 3 -13 12 -10 19 3 8 2 14 -3 14 -8 0 -24 46 -19 52 1 2 -4 14
-11 27 -8 14 -9 21 -2 17 6 -4 11 -3 11 3 0 5 -6 12 -12 14 -10 4 -10 6 0 6 9
1 10 6 2 20 -7 14 -7 20 2 23 13 5 19 48 6 48 -5 0 -4 8 1 18 6 12 5 25 -5 42
-7 14 -13 21 -14 16 0 -6 -6 -2 -12 7 -9 11 -18 14 -27 8z"/>
<path d="M4766 6318 c3 -5 10 -6 15 -3 13 9 11 12 -6 12 -8 0 -12 -4 -9 -9z"/>
<path d="M4085 630 c3 -5 8 -10 11 -10 2 0 4 5 4 10 0 6 -5 10 -11 10 -5 0 -7
-4 -4 -10z"/>
</g>
</svg>
